<?xml version="1.0" encoding="UTF-8"?>
<!DOCTYPE svg PUBLIC "-//W3C//DTD SVG 1.1//EN" "http://www.w3.org/Graphics/SVG/1.1/DTD/svg11.dtd">
<!-- Creator: CorelDRAW X8 -->
<svg xmlns="http://www.w3.org/2000/svg" xml:space="preserve" version="1.1" style="shape-rendering:geometricPrecision; text-rendering:geometricPrecision; image-rendering:optimizeQuality; fill-rule:evenodd; clip-rule:evenodd"
viewBox="1600 1600 800 800"
 xmlns:xlink="http://www.w3.org/1999/xlink">
 <defs>
  <style type="text/css">
   <![CDATA[
    .fil0 {fill:#0F172A}
    .fil1 {fill:#C62828}
   ]]>
  </style>
 </defs>
 <g id="Layer_x0020_1">
  <metadata id="CorelCorpID_0Corel-Layer"/>
  <g id="_2955075015952">
   <path class="fil0" d="M2002 1761l16 20c13,-8 70,-88 181,-55 61,19 110,80 110,145 -26,9 -63,1 -89,-9 -27,-11 -47,-33 -66,-40 -14,0 -45,44 -116,51 -19,2 -42,-3 -59,3 -8,22 -3,73 3,97l25 0 -6 -72c34,-4 53,0 88,-12 30,-11 40,-20 65,-35 77,52 86,38 156,46 2,115 -68,214 -155,271 -36,-19 -51,-41 -70,-58 -27,-22 -35,-50 -54,-72l-24 0c4,45 83,117 118,142 30,22 27,22 57,2 68,-48 123,-123 143,-206 48,-194 -70,-308 -212,-283 -36,6 -95,35 -111,65z"/>
   <path class="fil1" d="M2018 1781l-16 -20c-15,-6 -33,-29 -51,-40 -21,-13 -43,-21 -67,-25 -158,-28 -282,133 -187,294 -100,42 118,30 133,29 12,-24 26,-66 37,-88 8,16 33,124 41,156 28,112 48,-37 64,-65 26,-6 100,13 78,-27 -17,-4 -77,-3 -95,0 -9,10 -20,52 -25,68 -25,-68 -45,-263 -78,-171l-39 100 -78 1c-24,-9 -97,-159 19,-242 60,-44 146,-42 199,5 10,8 20,18 29,27 8,7 12,12 16,17 6,-5 9,-9 20,-19z"/>
   <path class="fil1" d="M1997 2307l1 -31c-57,-65 -117,-116 -172,-174 -19,-19 -36,-42 -55,-62l-36 0c20,32 230,245 262,267z"/>
   <polygon class="fil0" points="2135,1985 2090,1986 2088,2024 2134,2025 2136,2070 2174,2071 2175,2026 2222,2025 2222,1986 2176,1986 2174,1941 2135,1940 "/>
   <path class="fil0" d="M1998 2276l-1 31c13,-1 23,-11 36,-23 12,-11 24,-25 32,-34 8,-8 9,-9 13,-14 5,-6 10,-11 16,-16 13,-12 26,-22 0,-32 -21,8 -69,75 -96,88z"/>
  </g>
 </g>
</svg>
